<svg width="10" height="12" viewBox="0 0 10 12" fill="none" xmlns="http://www.w3.org/2000/svg">
<path d="M8.4618 5.55585L4.28504 9.95676C3.48238 10.8025 2.18214 10.8025 1.37947 9.95676C0.57681 9.11102 0.57681 7.741 1.37947 6.89526L5.91943 2.11166C6.16024 1.85792 6.48685 1.71537 6.82741 1.71537C7.16798 1.71537 7.49459 1.85792 7.73541 2.11166C7.97622 2.3654 8.11151 2.70954 8.11151 3.06838C8.11151 3.42722 7.97622 3.77136 7.73541 4.0251L3.92185 8.04332C3.72209 8.2538 3.39521 8.2538 3.19545 8.04332C2.9957 7.83284 2.9957 7.48842 3.19545 7.27794L6.64582 3.64241L6.10102 3.06838L2.65066 6.70391C2.40985 6.95765 2.27456 7.30179 2.27456 7.66063C2.27456 8.01947 2.40985 8.36361 2.65066 8.61735C2.89147 8.87109 3.21809 9.01364 3.55865 9.01364C3.89921 9.01364 4.22583 8.87109 4.46664 8.61735L8.2802 4.59913C9.08286 3.75339 9.08286 2.38337 8.2802 1.53763C7.47754 0.691885 6.17729 0.691885 5.37463 1.53763L0.834679 6.32122C-0.269437 7.4846 -0.269437 9.36742 0.834679 10.5308C1.9388 11.6942 3.72572 11.6942 4.82984 10.5308L9.00659 6.12988L8.4618 5.55585Z" fill="#2F80ED"/>
</svg>
