<svg width="16" height="12" viewBox="0 0 16 12" fill="none" xmlns="http://www.w3.org/2000/svg">
<path d="M14.8571 0H1.14286C0.839753 0 0.549062 0.126428 0.334735 0.351472C0.120408 0.576515 0 0.88174 0 1.2V10.8C0 11.1183 0.120408 11.4235 0.334735 11.6485C0.549062 11.8736 0.839753 12 1.14286 12H14.8571C15.1602 12 15.4509 11.8736 15.6653 11.6485C15.8796 11.4235 16 11.1183 16 10.8V1.2C16 0.88174 15.8796 0.576515 15.6653 0.351472C15.4509 0.126428 15.1602 0 14.8571 0ZM13.6 1.2L8 5.268L2.4 1.2H13.6ZM1.14286 10.8V1.746L7.67429 6.492C7.76994 6.56168 7.88358 6.59901 8 6.59901C8.11642 6.59901 8.23006 6.56168 8.32571 6.492L14.8571 1.746V10.8H1.14286Z" fill="white"/>
</svg>
