<svg width="40" height="40" viewBox="0 0 40 40" fill="none" xmlns="http://www.w3.org/2000/svg">
<path d="M39.2969 21.6585L31.5625 31.8049C31.0938 32.2472 30.5273 32.4683 29.8633 32.4683C29.1992 32.4683 28.6328 32.2407 28.1641 31.7854C27.6953 31.3301 27.4609 30.7707 27.4609 30.1073C27.4609 29.4439 27.6953 28.878 28.1641 28.4098L34.6094 19.9805L28.1641 11.5512C27.6953 11.0829 27.4609 10.5236 27.4609 9.87317C27.4609 9.22276 27.6953 8.66341 28.1641 8.19512C28.6328 7.72683 29.1992 7.49268 29.8633 7.49268C30.5273 7.49268 31.0938 7.72683 31.5625 8.19512L39.2969 18.3024C39.7656 18.7707 40 19.3301 40 19.9805C40 20.6309 39.7656 21.1902 39.2969 21.6585ZM20 37.5024C19.974 37.5805 19.9349 37.7301 19.8828 37.9512C19.8307 38.1724 19.7917 38.322 19.7656 38.4L19.6289 38.8098L19.4336 39.2195L19.1406 39.5317L18.7305 39.8049L18.2031 39.9415L17.5 40C16.875 40 16.276 39.6748 15.7031 39.0244C15.1302 38.374 14.9219 37.7496 15.0781 37.1512L20 2.49756C20.4427 0.83252 21.6927 0 23.75 0C24.3229 0 24.707 0.305691 24.9023 0.917073C25.0977 1.52846 25.1042 2.17236 24.9219 2.84878L20 37.5024ZM11.8359 31.7854C11.3672 32.2407 10.8008 32.4683 10.1367 32.4683C9.47266 32.4683 8.90625 32.2472 8.4375 31.8049L0.703125 21.6585C0.234375 21.1902 0 20.6309 0 19.9805C0 19.3301 0.234375 18.7707 0.703125 18.3024L8.4375 8.19512C8.90625 7.72683 9.47266 7.49268 10.1367 7.49268C10.8008 7.49268 11.3672 7.72683 11.8359 8.19512C12.3047 8.66341 12.5391 9.22276 12.5391 9.87317C12.5391 10.5236 12.3047 11.0829 11.8359 11.5512L5.39062 19.9805L11.8359 28.4098C12.3047 28.878 12.5391 29.4439 12.5391 30.1073C12.5391 30.7707 12.3047 31.3301 11.8359 31.7854Z" fill="#595959"/>
</svg>
