<svg width="170" height="80" viewBox="0 0 170 80" fill="none" xmlns="http://www.w3.org/2000/svg">
<path d="M8 40C8 37.1268 8.66236 34.5493 9.98708 32.2676C11.34 29.9859 13.1579 28.2113 15.441 26.9437C17.7522 25.6479 20.2748 25 23.0088 25C26.1374 25 28.9137 25.7746 31.3376 27.3239C33.3868 28.5951 34.9636 30.3188 36.068 32.4949C36.3866 33.1225 35.9049 33.831 35.201 33.831H31.4955C31.1142 33.831 30.7701 33.6116 30.5804 33.2809C29.8489 32.0054 28.8893 31.0339 27.7017 30.3662C26.3488 29.6056 24.7845 29.2254 23.0088 29.2254C21.064 29.2254 19.3306 29.662 17.8086 30.5352C16.2865 31.4085 15.0887 32.662 14.2149 34.2958C13.3693 35.9296 12.9466 37.831 12.9466 40C12.9466 42.169 13.3693 44.0704 14.2149 45.7042C15.0887 47.338 16.2865 48.6056 17.8086 49.507C19.3306 50.3803 21.064 50.8169 23.0088 50.8169C24.7845 50.8169 26.3488 50.4366 27.7017 49.6761C28.8893 49.0084 29.8489 48.0368 30.5804 46.7614C30.7701 46.4306 31.1142 46.2113 31.4955 46.2113H35.201C35.9049 46.2113 36.3866 46.9197 36.068 47.5474C34.9636 49.7235 33.3868 51.4471 31.3376 52.7183C28.9137 54.2394 26.1374 55 23.0088 55C20.2466 55 17.724 54.3662 15.441 53.0986C13.1579 51.8028 11.34 50.0141 9.98708 47.7324C8.66236 45.4507 8 42.8732 8 40Z" fill="#262626"/>
<path d="M88.2115 25.3803C91.3401 25.3803 94.0741 25.9859 96.4135 27.1972C98.7811 28.3803 100.599 30.0986 101.867 32.3521C103.164 34.5775 103.812 37.1831 103.812 40.169C103.812 43.1549 103.164 45.7465 101.867 47.9437C100.599 50.1408 98.7811 51.831 96.4135 53.0141C94.0741 54.169 91.3401 54.7465 88.2115 54.7465H79.6144C79.0621 54.7465 78.6144 54.2988 78.6144 53.7465V26.3803C78.6144 25.828 79.0621 25.3803 79.6144 25.3803H88.2115ZM88.2115 50.8169C91.6502 50.8169 94.2855 49.8873 96.1176 48.0282C97.9496 46.169 98.8657 43.5493 98.8657 40.169C98.8657 36.7606 97.9496 34.0986 96.1176 32.1831C94.2855 30.2676 91.6502 29.3099 88.2115 29.3099H83.4341V50.8169H88.2115Z" fill="#262626"/>
<path d="M111.986 25.3803C112.538 25.3803 112.986 25.828 112.986 26.3803V53.7465C112.986 54.2988 112.538 54.7465 111.986 54.7465H109.166C108.614 54.7465 108.166 54.2988 108.166 53.7465V26.3803C108.166 25.828 108.614 25.3803 109.166 25.3803H111.986Z" fill="#262626"/>
<path d="M135.183 25.3803C135.735 25.3803 136.183 25.828 136.183 26.3803V28.3099C136.183 28.8621 135.735 29.3099 135.183 29.3099H123.711V37.9718H132.435C132.987 37.9718 133.435 38.4195 133.435 38.9718V40.9014C133.435 41.4537 132.987 41.9014 132.435 41.9014H123.711V53.7465C123.711 54.2988 123.263 54.7465 122.711 54.7465H119.891C119.339 54.7465 118.891 54.2988 118.891 53.7465V26.3803C118.891 25.828 119.339 25.3803 119.891 25.3803H135.183Z" fill="#262626"/>
<path d="M160.354 25.3803C161.104 25.3803 161.587 26.1756 161.241 26.8413L152.276 44.0986V53.7465C152.276 54.2988 151.828 54.7465 151.276 54.7465H148.456C147.904 54.7465 147.456 54.2988 147.456 53.7465V44.0986L138.453 26.8429C138.106 26.1771 138.589 25.3803 139.34 25.3803H142.426C142.813 25.3803 143.165 25.6034 143.33 25.9531L149.866 39.7887L156.402 25.9531C156.568 25.6034 156.92 25.3803 157.306 25.3803H160.354Z" fill="#262626"/>
<path fill-rule="evenodd" clip-rule="evenodd" d="M52.6957 22.7829C55.0729 20.4057 58.9271 20.4057 61.3043 22.7829L74.2171 35.6957C76.5943 38.0729 76.5943 41.9271 74.2171 44.3043L61.3043 57.2171C58.9271 59.5943 55.0729 59.5943 52.6957 57.2171L39.7829 44.3043C37.4057 41.9271 37.4057 38.0729 39.7829 35.6957L52.6957 22.7829ZM54.4174 26.2263C55.8437 24.8 58.1563 24.8 59.5826 26.2263C61.0089 27.6526 61.0089 29.9651 59.5826 31.3914L50.974 40L52.6957 41.7217C54.122 43.148 54.122 45.4605 52.6957 46.8868C51.2694 48.3132 48.9569 48.3132 47.5306 46.8868L43.2263 42.5826C41.8 41.1563 41.8 38.8437 43.2263 37.4174L54.4174 26.2263ZM59.5826 53.7737C58.1563 55.2 55.8437 55.2 54.4174 53.7737C52.9911 52.3474 52.9911 50.0349 54.4174 48.6086L63.026 40L61.1513 38.1253C59.725 36.699 59.725 34.3865 61.1513 32.9602C62.5776 31.5339 64.8901 31.5339 66.3165 32.9602L70.6207 37.2645C70.6463 37.29 70.6714 37.3159 70.696 37.342C70.7222 37.3667 70.7481 37.3918 70.7737 37.4174C72.2 38.8437 72.2 41.1563 70.7737 42.5826L59.5826 53.7737Z" fill="url(#paint0_linear)"/>
<defs>
<linearGradient id="paint0_linear" x1="38" y1="40" x2="76" y2="40" gradientUnits="userSpaceOnUse">
<stop stop-color="#3181EE"/>
<stop offset="1" stop-color="#94D1F0"/>
</linearGradient>
</defs>
</svg>
