<svg width="30" height="30" viewBox="0 0 30 30" fill="none" xmlns="http://www.w3.org/2000/svg">
<path d="M0 15C0 6.71573 6.71573 0 15 0C23.2843 0 30 6.71573 30 15C30 23.2843 23.2843 30 15 30C6.71573 30 0 23.2843 0 15Z" fill="#2F80ED"/>
<path d="M13.8433 10.3926L11.137 7.26879C10.825 6.90881 10.253 6.91041 9.89057 7.27359L7.66498 9.50306C7.00259 10.1662 6.81299 11.151 7.19618 11.9405C9.48547 16.6802 13.3082 20.5081 18.0449 22.8039C18.8337 23.187 19.8177 22.9974 20.4801 22.3343L22.7265 20.084C23.0905 19.72 23.0913 19.1449 22.7281 18.8329L19.5921 16.1411C19.2641 15.8595 18.7545 15.8963 18.4257 16.2259L17.3345 17.3186C17.2787 17.3771 17.2051 17.4157 17.1252 17.4284C17.0453 17.4412 16.9634 17.4273 16.8921 17.389C15.1085 16.3619 13.6289 14.8805 12.6042 13.0956C12.5658 13.0242 12.5519 12.9422 12.5646 12.8622C12.5773 12.7821 12.6159 12.7085 12.6746 12.6525L13.7625 11.5637C14.0921 11.2326 14.1281 10.7206 13.8433 10.3918V10.3926Z" stroke="white" stroke-width="1.5" stroke-linecap="round" stroke-linejoin="round"/>
</svg>
