<svg width="92" height="73" viewBox="0 0 92 73" fill="none" xmlns="http://www.w3.org/2000/svg">
<path d="M6.73171 12.1155V7.9928C6.7305 6.15348 7.51708 4.38871 8.91909 3.0852C10.3211 1.78168 12.2242 1.04572 14.2114 1.03857H8.60162C6.61444 1.04572 4.71134 1.78168 3.30933 3.0852C1.90732 4.38871 1.12075 6.15348 1.12195 7.9928V64.0074C1.12075 65.8467 1.90732 67.6115 3.30933 68.915C4.71134 70.2185 6.61444 70.9545 8.60162 70.9616H14.2114C12.2242 70.9545 10.3211 70.2185 8.91909 68.915C7.51708 67.6115 6.7305 65.8467 6.73171 64.0074V12.1155Z" fill="#96D2EF"/>
<path d="M92 7.96154C92 5.85001 91.0938 3.82496 89.4806 2.33188C87.8675 0.838802 85.6797 0 83.3984 0H8.60163C6.32033 0 4.13248 0.838802 2.51936 2.33188C0.90624 3.82496 0 5.85001 0 7.96154V64.0385C0 66.15 0.90624 68.175 2.51936 69.6681C4.13248 71.1612 6.32033 72 8.60163 72H83.3984C85.6797 72 87.8675 71.1612 89.4806 69.6681C91.0938 68.175 92 66.15 92 64.0385V7.96154ZM83.3984 69.9231H8.60163C6.91261 69.9139 5.29608 69.2867 4.10494 68.1783C2.91379 67.0699 2.24476 65.5703 2.2439 64.007V13.5H8.60163C8.89919 13.5 9.18456 13.3906 9.39497 13.1958C9.60537 13.0011 9.72358 12.737 9.72358 12.4615C9.72358 12.1861 9.60537 11.922 9.39497 11.7272C9.18456 11.5325 8.89919 11.4231 8.60163 11.4231H2.2439V7.99304C2.24476 6.42968 2.91379 4.93012 4.10494 3.82171C5.29608 2.7133 6.91261 2.08607 8.60163 2.07692H29.5447V7.69967C29.5507 8.20314 29.447 8.70255 29.2398 9.1681C29.0327 9.63366 28.7263 10.0558 28.339 10.4094C27.6049 11.066 26.6218 11.43 25.6009 11.4231H16.4553C16.1577 11.4231 15.8724 11.5325 15.6619 11.7272C15.4515 11.922 15.3333 12.1861 15.3333 12.4615C15.3333 12.737 15.4515 13.0011 15.6619 13.1958C15.8724 13.3906 16.1577 13.5 16.4553 13.5H89.7561V64.007C89.7552 65.5703 89.0862 67.0699 87.8951 68.1783C86.7039 69.2867 85.0874 69.9139 83.3984 69.9231ZM89.7561 11.4231H30.3591C31.2926 10.3735 31.7986 9.05383 31.7886 7.69431V2.07692H83.3984C85.0874 2.08607 86.7039 2.7133 87.8951 3.82171C89.0862 4.93012 89.7552 6.42968 89.7561 7.99304V11.4231Z" fill="#2F80ED"/>
<path d="M9.79169 5.36182C9.48909 5.36182 9.19329 5.44487 8.94168 5.60048C8.69008 5.75608 8.49398 5.97725 8.37818 6.23601C8.26238 6.49477 8.23208 6.7795 8.29112 7.0542C8.35015 7.3289 8.49587 7.58123 8.70984 7.77928C8.92381 7.97732 9.19642 8.1122 9.49321 8.16684C9.78999 8.22148 10.0976 8.19343 10.3772 8.08625C10.6568 7.97907 10.8957 7.79756 11.0638 7.56468C11.2319 7.3318 11.3217 7.05801 11.3217 6.77793C11.3212 6.40248 11.1599 6.04253 10.8731 5.77704C10.5862 5.51156 10.1973 5.36223 9.79169 5.36182Z" fill="#2F80ED"/>
<path d="M17.4414 6.77793C17.4414 6.49785 17.3517 6.22406 17.1836 5.99118C17.0154 5.7583 16.7765 5.57679 16.4969 5.46961C16.2174 5.36243 15.9097 5.33439 15.613 5.38903C15.3162 5.44367 15.0436 5.57854 14.8296 5.77659C14.6156 5.97463 14.4699 6.22696 14.4109 6.50166C14.3518 6.77636 14.3821 7.06109 14.4979 7.31986C14.6137 7.57862 14.8098 7.79978 15.0614 7.95539C15.313 8.11099 15.6088 8.19405 15.9114 8.19405C16.3171 8.19363 16.706 8.0443 16.9928 7.77882C17.2796 7.51334 17.441 7.15338 17.4414 6.77793Z" fill="#2F80ED"/>
<path d="M22.0312 8.19405C22.3338 8.19405 22.6296 8.11099 22.8812 7.95539C23.1328 7.79978 23.3289 7.57862 23.4447 7.31986C23.5605 7.06109 23.5908 6.77636 23.5318 6.50166C23.4727 6.22696 23.327 5.97463 23.113 5.77659C22.8991 5.57854 22.6265 5.44367 22.3297 5.38903C22.0329 5.33439 21.7253 5.36243 21.4457 5.46961C21.1661 5.57679 20.9272 5.7583 20.7591 5.99118C20.591 6.22406 20.5012 6.49785 20.5012 6.77793C20.5017 7.15338 20.663 7.51334 20.9498 7.77882C21.2367 8.0443 21.6256 8.19363 22.0312 8.19405Z" fill="#2F80ED"/>
<path d="M5.98377 15.75C5.68621 15.75 5.40083 15.8594 5.19043 16.0542C4.98002 16.2489 4.86182 16.513 4.86182 16.7885V17.1346C4.86182 17.41 4.98002 17.6742 5.19043 17.8689C5.40083 18.0637 5.68621 18.1731 5.98377 18.1731C6.28133 18.1731 6.5667 18.0637 6.77711 17.8689C6.98751 17.6742 7.10572 17.41 7.10572 17.1346V16.7885C7.10572 16.513 6.98751 16.2489 6.77711 16.0542C6.5667 15.8594 6.28133 15.75 5.98377 15.75Z" fill="#2F80ED"/>
<path d="M5.98377 19.5576C5.68621 19.5576 5.40083 19.667 5.19043 19.8618C4.98002 20.0565 4.86182 20.3207 4.86182 20.5961V36.5192C4.86182 36.7946 4.98002 37.0587 5.19043 37.2535C5.40083 37.4482 5.68621 37.5576 5.98377 37.5576C6.28133 37.5576 6.5667 37.4482 6.77711 37.2535C6.98751 37.0587 7.10572 36.7946 7.10572 36.5192V20.5961C7.10572 20.3207 6.98751 20.0565 6.77711 19.8618C6.5667 19.667 6.28133 19.5576 5.98377 19.5576Z" fill="#2F80ED"/>
<path d="M31.9593 41.6001C32.0403 41.7237 32.1481 41.8275 32.2747 41.9037C32.4014 41.98 32.5435 42.0267 32.6907 42.0405C32.7215 42.0434 32.752 42.0449 32.7825 42.0449C32.9148 42.0449 33.0458 42.0182 33.1676 41.9664C33.2894 41.9146 33.3994 41.8388 33.4912 41.7435L44.7664 30.0395C44.858 29.9445 44.9295 29.8321 44.9768 29.7089C45.024 29.5857 45.046 29.4542 45.0414 29.3224C45.0368 29.1905 45.0057 29.0609 44.95 28.9413C44.8944 28.8217 44.8152 28.7145 44.7172 28.6261C41.8483 26.0356 38.2196 24.4407 34.3711 24.0788C30.5226 23.7169 26.6602 24.6073 23.3586 26.6175C23.246 26.6862 23.1483 26.7768 23.0714 26.884C22.9945 26.9912 22.9399 27.1128 22.9109 27.2414C22.8819 27.3701 22.8791 27.5033 22.9026 27.6332C22.9261 27.763 22.9755 27.8867 23.0478 27.9971L31.9593 41.6001ZM32.691 25.9682C36.297 25.967 39.7971 27.1872 42.6209 29.4299L32.9296 39.4896L25.2685 27.7953C27.5581 26.594 30.1053 25.967 32.691 25.9682Z" fill="#96D2EF"/>
<path d="M48.8681 44.9407H31.8808C31.8391 44.9177 31.8038 44.8846 31.7784 44.8444L22.1964 30.2068C22.1213 30.0919 22.023 29.9941 21.9079 29.9195C21.7928 29.8449 21.6633 29.7952 21.5278 29.7735C21.3923 29.7519 21.2538 29.7589 21.1212 29.7939C20.9885 29.829 20.8647 29.8914 20.7576 29.9771C18.6476 31.6544 16.9439 33.7867 15.7737 36.2149C14.6036 38.643 13.9972 41.3042 14 43.9996C14 53.9249 22.0642 62 31.9765 62C36.4083 62.0173 40.6913 60.4028 44.0088 57.4645C47.3102 54.5118 49.3916 50.4341 49.8461 46.0284C49.8607 45.8913 49.8462 45.7526 49.8037 45.6214C49.7611 45.4902 49.6915 45.3694 49.5993 45.2668C49.5071 45.1642 49.3943 45.0822 49.2683 45.026C49.1424 44.9698 49.006 44.9408 48.8681 44.9407ZM42.7021 55.9952C39.7459 58.612 35.9298 60.0489 31.9818 60.0318C23.1548 60.0318 15.9784 52.8398 15.9784 43.9996C15.9776 41.7822 16.44 39.5891 17.336 37.5608C18.232 35.5325 19.5418 33.7137 21.1816 32.221L30.1699 45.9223C30.3416 46.2207 30.5885 46.4688 30.8861 46.6419C31.1836 46.815 31.5214 46.9071 31.8657 46.9088H47.7363C47.1313 50.4188 45.3571 53.621 42.7021 55.9952Z" fill="#96D2EF"/>
<path d="M46.6074 31.091C46.4705 31.087 46.3342 31.1117 46.2073 31.1636C46.0804 31.2154 45.9658 31.2932 45.8708 31.392L35.5301 42.1256C35.3961 42.2646 35.306 42.44 35.271 42.6298C35.2359 42.8197 35.2575 43.0156 35.3331 43.1933C35.4086 43.371 35.5347 43.5225 35.6957 43.6291C35.8568 43.7356 36.0456 43.7924 36.2386 43.7924H50.6789C50.8098 43.7925 50.9394 43.7664 51.06 43.7157C51.1807 43.6651 51.2901 43.5908 51.3817 43.4974C51.4734 43.404 51.5454 43.2932 51.5937 43.1715C51.642 43.0499 51.6656 42.9198 51.663 42.789C51.557 38.6195 50.0266 34.6121 47.3263 31.4333C47.237 31.3293 47.1269 31.2451 47.0031 31.1862C46.8793 31.1272 46.7445 31.0948 46.6074 31.091ZM38.5533 41.8243L46.511 33.5642C48.2927 35.9782 49.3758 38.8358 49.642 41.8243H38.5533Z" fill="#96D2EF"/>
<path d="M77.0793 27.883C77.0793 27.622 76.9756 27.3717 76.7911 27.1872C76.6065 27.0026 76.3562 26.8989 76.0952 26.8989H57.397C57.136 26.8989 56.8856 27.0026 56.7011 27.1872C56.5165 27.3717 56.4128 27.622 56.4128 27.883V31.6553C56.4128 31.9163 56.5165 32.1666 56.7011 32.3512C56.8856 32.5358 57.136 32.6394 57.397 32.6394H76.0952C76.3562 32.6394 76.6065 32.5358 76.7911 32.3512C76.9756 32.1666 77.0793 31.9163 77.0793 31.6553V27.883ZM75.2751 30.6713H66.09V28.8671H75.2751V30.6713ZM58.3811 28.8671H64.1218V30.6713H58.3811V28.8671Z" fill="#96D2EF"/>
<path d="M81.9999 36.0837C81.9999 35.8227 81.8962 35.5724 81.7116 35.3878C81.5271 35.2033 81.2768 35.0996 81.0158 35.0996H57.397C57.136 35.0996 56.8856 35.2033 56.7011 35.3878C56.5165 35.5724 56.4128 35.8227 56.4128 36.0837V39.856C56.4128 40.117 56.5165 40.3673 56.7011 40.5519C56.8856 40.7364 57.136 40.8401 57.397 40.8401H81.0158C81.2768 40.8401 81.5271 40.7364 81.7116 40.5519C81.8962 40.3673 81.9999 40.117 81.9999 39.856V36.0837ZM58.3811 37.0678H64.1218V38.8719H58.3811V37.0678ZM80.1957 38.8719H66.09V37.0678H80.1957V38.8719Z" fill="#96D2EF"/>
<path d="M77.0793 44.2844C77.0793 44.0234 76.9756 43.7731 76.7911 43.5885C76.6065 43.404 76.3562 43.3003 76.0952 43.3003H57.397C57.136 43.3003 56.8856 43.404 56.7011 43.5885C56.5165 43.7731 56.4128 44.0234 56.4128 44.2844V48.0567C56.4128 48.3177 56.5165 48.568 56.7011 48.7526C56.8856 48.9371 57.136 49.0408 57.397 49.0408H76.0952C76.3562 49.0408 76.6065 48.9371 76.7911 48.7526C76.9756 48.568 77.0793 48.3177 77.0793 48.0567V44.2844ZM75.2751 47.0726H66.09V45.2685H75.2751V47.0726ZM58.3811 45.2685H64.1218V47.0726H58.3811V45.2685Z" fill="#96D2EF"/>
<path d="M80.3597 52.4853C80.3597 52.2243 80.256 51.974 80.0714 51.7895C79.8869 51.6049 79.6366 51.5012 79.3756 51.5012H57.397C57.136 51.5012 56.8856 51.6049 56.7011 51.7895C56.5165 51.974 56.4128 52.2243 56.4128 52.4853V56.2576C56.4128 56.5186 56.5165 56.7689 56.7011 56.9535C56.8856 57.138 57.136 57.2417 57.397 57.2417H79.3756C79.6366 57.2417 79.8869 57.138 80.0714 56.9535C80.256 56.7689 80.3597 56.5186 80.3597 56.2576V52.4853ZM58.3811 53.4694H64.1218V55.2736H58.3811V53.4694ZM78.5555 55.2736H66.09V53.4694H78.5555V55.2736Z" fill="#96D2EF"/>
</svg>
