<svg width="86" height="73" viewBox="0 0 86 73" fill="none" xmlns="http://www.w3.org/2000/svg">
<path d="M80.7182 59.7237V17.2444C80.7241 16.4227 80.5633 15.608 80.2451 14.8477C79.9269 14.0875 79.4576 13.3967 78.8646 12.8157C78.2716 12.2347 77.5667 11.775 76.7907 11.4634C76.0148 11.1517 75.1834 10.9942 74.3449 11.0002H69.2338V13.0158H74.3446C74.9131 13.0098 75.4771 13.1151 76.0036 13.3255C76.5301 13.5359 77.0084 13.8473 77.4104 14.2412C77.8125 14.6352 78.1303 15.1038 78.3451 15.6197C78.5599 16.1356 78.6674 16.6883 78.6613 17.2454V59.5431H73.6905V18.8893C73.6845 18.6202 73.5707 18.3641 73.3736 18.1765C73.1766 17.9889 72.912 17.8849 72.6373 17.8869H69.2338V19.9025H71.6335V59.5431H52.863C52.6926 59.5493 52.5263 59.5955 52.378 59.678C52.2298 59.7606 52.1041 59.8769 52.0114 60.0171L50.1547 62.7345H35.8592L34.0021 60.0171C33.9096 59.8769 33.7839 59.7605 33.6357 59.678C33.4874 59.5955 33.3211 59.5492 33.1508 59.5431H14.3828V19.9025H16.6111V17.8869H13.379C13.1043 17.8849 12.8398 17.9889 12.6427 18.1765C12.4456 18.3641 12.3318 18.6202 12.3259 18.8893V59.5431H7.35501V17.2444C7.3497 16.6875 7.45773 16.1352 7.67278 15.6198C7.88784 15.1043 8.2056 14.636 8.6075 14.2423C9.0094 13.8486 9.48736 13.5373 10.0134 13.3267C10.5395 13.1161 11.1032 13.0104 11.6714 13.0158H16.7825V11.0002H11.6702C10.832 10.9952 10.0011 11.1534 9.22565 11.4654C8.45023 11.7775 7.74574 12.2373 7.15301 12.8182C6.56029 13.3991 6.09112 14.0895 5.77271 14.8493C5.4543 15.6092 5.29298 16.4235 5.2981 17.2449V59.7222C4.00193 59.9283 2.80796 60.538 1.89305 61.461C1.29354 62.0428 0.817586 62.7352 0.492667 63.4982C0.167749 64.2613 0.000304749 65.0798 3.8604e-06 65.9066C-0.000920639 66.7286 0.164215 67.5426 0.485887 68.3017C0.80756 69.0608 1.2794 69.75 1.87421 70.3295C2.46902 70.9091 3.17503 71.3675 3.95151 71.6784C4.728 71.9892 5.5596 72.1464 6.39837 72.1408H79.6183C81.2154 72.1403 82.7544 71.5532 83.9314 70.4953C85.1084 69.4373 85.838 67.9855 85.9761 66.4263C86.1142 64.867 85.6508 63.3137 84.6775 62.0729C83.7041 60.8321 82.2914 59.9939 80.7182 59.7237ZM82.6994 68.9007C82.2943 69.2949 81.8132 69.6063 81.2841 69.8165C80.755 70.0267 80.1885 70.1316 79.6176 70.1252H6.39872C5.82798 70.1312 5.26171 70.0261 4.73276 69.8159C4.2038 69.6058 3.7227 69.2948 3.31734 68.9011C2.91199 68.5073 2.59047 68.0386 2.37142 67.5221C2.15238 67.0056 2.04017 66.4517 2.04132 65.8923C2.03861 64.7532 2.49472 63.6591 3.31055 62.8477C4.12639 62.0362 5.23603 61.573 6.39837 61.5588H32.6052L34.4622 64.2762C34.5548 64.4164 34.6805 64.5328 34.8288 64.6153C34.977 64.6978 35.1434 64.7441 35.3138 64.7502H50.7002C50.8705 64.7441 51.0369 64.6978 51.1851 64.6153C51.3333 64.5328 51.459 64.4164 51.5516 64.2762L53.4084 61.5588H79.6169C80.4816 61.5662 81.3249 61.8233 82.0412 62.2981C82.7575 62.7728 83.315 63.444 83.6439 64.2276C83.9729 65.0113 84.0586 65.8727 83.8905 66.7038C83.7224 67.5351 83.3078 68.2992 82.6987 68.9007H82.6994Z" fill="#96D2EF"/>
<path d="M21.9266 56.0156H30.9582C31.231 56.0156 31.4926 55.9094 31.6854 55.7204C31.8783 55.5314 31.9867 55.2751 31.9867 55.0078C31.9867 54.7405 31.8783 54.4842 31.6854 54.2952C31.4926 54.1062 31.231 54 30.9582 54H21.9266C21.6539 54 21.3923 54.1062 21.1994 54.2952C21.0065 54.4842 20.8982 54.7405 20.8982 55.0078C20.8982 55.2751 21.0065 55.5314 21.1994 55.7204C21.3923 55.9094 21.6539 56.0156 21.9266 56.0156Z" fill="#96D2EF"/>
<path d="M36.6278 54C36.3551 54 36.0935 54.1062 35.9006 54.2952C35.7077 54.4842 35.5994 54.7405 35.5994 55.0078C35.5994 55.2751 35.7077 55.5314 35.9006 55.7204C36.0935 55.9094 36.3551 56.0156 36.6278 56.0156H55.5463C55.8191 56.0156 56.0807 55.9094 56.2735 55.7204C56.4664 55.5314 56.5748 55.2751 56.5748 55.0078C56.5748 54.7405 56.4664 54.4842 56.2735 54.2952C56.0807 54.1062 55.8191 54 55.5463 54H36.6278Z" fill="#96D2EF"/>
<path d="M64.0898 54H59.9606C59.6878 54 59.4262 54.1062 59.2334 54.2952C59.0405 54.4842 58.9321 54.7405 58.9321 55.0078C58.9321 55.2751 59.0405 55.5314 59.2334 55.7204C59.4262 55.9094 59.6878 56.0156 59.9606 56.0156H64.0898C64.3626 56.0156 64.6242 55.9094 64.8171 55.7204C65.0099 55.5314 65.1183 55.2751 65.1183 55.0078C65.1183 54.7405 65.0099 54.4842 64.8171 54.2952C64.6242 54.1062 64.3626 54 64.0898 54Z" fill="#96D2EF"/>
<path d="M21.9266 50.1367H25.0605C25.3333 50.1367 25.5949 50.0305 25.7878 49.8415C25.9806 49.6525 26.089 49.3962 26.089 49.1289C26.089 48.8616 25.9806 48.6053 25.7878 48.4163C25.5949 48.2273 25.3333 48.1211 25.0605 48.1211H21.9266C21.6539 48.1211 21.3923 48.2273 21.1994 48.4163C21.0065 48.6053 20.8982 48.8616 20.8982 49.1289C20.8982 49.3962 21.0065 49.6525 21.1994 49.8415C21.3923 50.0305 21.6539 50.1367 21.9266 50.1367Z" fill="#96D2EF"/>
<path d="M29.4496 48.1211C29.1768 48.1211 28.9152 48.2273 28.7224 48.4163C28.5295 48.6053 28.4211 48.8616 28.4211 49.1289C28.4211 49.3962 28.5295 49.6525 28.7224 49.8415C28.9152 50.0305 29.1768 50.1367 29.4496 50.1367H31.7242C31.997 50.1367 32.2586 50.0305 32.4514 49.8415C32.6443 49.6525 32.7527 49.3962 32.7527 49.1289C32.7527 48.8616 32.6443 48.6053 32.4514 48.4163C32.2586 48.2273 31.997 48.1211 31.7242 48.1211H29.4496Z" fill="#96D2EF"/>
<path d="M64.0899 48.1211H36.1486C35.8758 48.1211 35.6142 48.2273 35.4213 48.4163C35.2285 48.6053 35.1201 48.8616 35.1201 49.1289C35.1201 49.3962 35.2285 49.6525 35.4213 49.8415C35.6142 50.0305 35.8758 50.1367 36.1486 50.1367H64.0899C64.3626 50.1367 64.6242 50.0305 64.8171 49.8415C65.01 49.6525 65.1183 49.3962 65.1183 49.1289C65.1183 48.8616 65.01 48.6053 64.8171 48.4163C64.6242 48.2273 64.3626 48.1211 64.0899 48.1211Z" fill="#96D2EF"/>
<path d="M25.9095 1.09156H20.6265C20.0286 1.08518 19.4355 1.20132 18.8814 1.43325C18.3273 1.66518 17.8232 2.00829 17.3982 2.44276C16.9733 2.87722 16.6359 3.39442 16.4056 3.96443C16.1754 4.53444 16.0567 5.14596 16.0567 5.76363V33.0811C16.0534 34.3379 16.5325 35.5449 17.3892 36.4374C18.2458 37.3298 19.4099 37.8351 20.6265 37.8423H25.9095C24.6929 37.8351 23.5288 37.3298 22.6722 36.4374C21.8156 35.5449 21.3364 34.3379 21.3397 33.0811V5.76363C21.3398 5.14596 21.4584 4.53444 21.6886 3.96443C21.9189 3.39442 22.2563 2.87722 22.6812 2.44276C23.1062 2.00829 23.6103 1.66518 24.1644 1.43325C24.7185 1.20132 25.3117 1.08518 25.9095 1.09156Z" fill="#96D2EF"/>
<path d="M36.2095 37.8423H30.9265C34.2654 37.8423 35.7552 39.698 36.4649 41.7702C37.1746 43.8425 37.1041 46.1094 37.3225 46.9208C37.3524 47.0282 37.3841 47.0627 37.4158 47.0118C37.4158 47.0118 40.2598 46.0896 41.9173 42.3257C41.8659 42.1398 41.8116 41.9542 41.7479 41.7702C41.0382 39.698 39.5484 37.8423 36.2095 37.8423Z" fill="#96D2EF"/>
<path d="M29.9686 16.2898C30.4944 16.2898 31.0252 16.0298 31.0252 15.5331V6.41932C31.0252 5.9432 30.5171 5.64846 30.0538 5.64846C29.8793 5.64702 29.71 5.70999 29.5764 5.82603L27.9864 7.07828C27.8563 7.16707 27.7496 7.28784 27.6758 7.42975C27.602 7.57166 27.5635 7.73027 27.5637 7.89135C27.5637 8.32963 27.8534 8.80266 28.3143 8.80266C28.4819 8.80212 28.6436 8.73825 28.7688 8.62309L28.9123 8.485V15.5331C28.9119 15.9787 29.3455 16.2898 29.9686 16.2898Z" fill="#2F80ED"/>
<path d="M41.4152 9.06947C41.4152 6.88153 40.2327 5.67676 38.0624 5.67676C35.901 5.67639 34.7234 6.88153 34.7234 9.06947V12.9811C34.7234 15.1692 35.901 16.3741 38.0624 16.3741C40.2327 16.3741 41.4152 15.1692 41.4152 12.9814V9.06947ZM39.302 12.9811C39.302 13.9302 38.8913 14.4114 38.0626 14.4114C37.2339 14.4114 36.8366 13.944 36.8366 12.9814V9.06947C36.8366 8.10685 37.2312 7.63892 38.0626 7.63892C38.894 7.63892 39.302 8.12013 39.302 9.06947V12.9811Z" fill="#2F80ED"/>
<path d="M46.8742 16.2898C47.4 16.2898 47.9308 16.0298 47.9308 15.5331V6.41932C47.9308 5.94319 47.4454 5.64846 46.9823 5.64846C46.8112 5.64706 46.6455 5.7102 46.5163 5.82603L44.9314 7.07828C44.8016 7.16722 44.6953 7.28809 44.622 7.43001C44.5486 7.57194 44.5106 7.73046 44.5112 7.89135C44.5112 8.32963 44.7909 8.80266 45.2517 8.80266C45.4164 8.80204 45.575 8.73802 45.6964 8.62309L45.817 8.485V15.5331C45.8176 15.9787 46.2511 16.2898 46.8742 16.2898Z" fill="#2F80ED"/>
<path d="M58.4968 12.9814V9.06947C58.4968 6.88153 57.3142 5.67676 55.144 5.67676C52.9825 5.67639 51.8049 6.88153 51.8049 9.06947V12.9811C51.8049 15.1692 52.9825 16.3741 55.144 16.3741C57.3142 16.3741 58.4968 15.1692 58.4968 12.9814ZM53.9181 12.9814V9.06947C53.9181 8.10685 54.3128 7.63892 55.1442 7.63892C55.9755 7.63892 56.3835 8.12013 56.3835 9.06947V12.9811C56.3835 13.9302 55.9729 14.4114 55.1442 14.4114C54.3154 14.4114 53.9181 13.944 53.9181 12.9814Z" fill="#2F80ED"/>
<path d="M31.5466 33.2004C33.7168 33.2004 34.8993 31.9954 34.8993 29.8075V25.8959C34.8993 23.7081 33.7168 22.5032 31.5466 22.5032C29.3851 22.5032 28.2075 23.7081 28.2075 25.8959V29.8075C28.2075 31.9954 29.3851 33.2004 31.5466 33.2004ZM30.3207 25.8957C30.3207 24.9331 30.7154 24.4652 31.5466 24.4652C32.3778 24.4652 32.7861 24.9466 32.7861 25.8957V29.8073C32.7861 30.7566 32.3753 31.238 31.5466 31.238C30.7178 31.238 30.3207 30.7703 30.3207 29.8075V25.8957Z" fill="#2F80ED"/>
<path d="M40.3586 33.1162C40.8844 33.1162 41.4152 32.8562 41.4152 32.3595V23.2457C41.4152 22.7694 40.8761 22.4746 40.413 22.4746C40.2337 22.4731 40.0594 22.5359 39.9199 22.6522L38.3223 23.9045C38.1916 23.993 38.0842 24.1136 38.0097 24.2555C37.9351 24.3974 37.8958 24.5562 37.8953 24.7177C37.8953 25.156 38.1781 25.6288 38.6391 25.6288C38.8174 25.6286 38.9902 25.5652 39.1287 25.4493L39.3018 25.3112V32.3595C39.302 32.8049 39.7355 33.1162 40.3586 33.1162Z" fill="#2F80ED"/>
<path d="M48.4523 33.2004C50.6226 33.2004 51.8051 31.9954 51.8051 29.8075V25.8959C51.8051 23.7081 50.6226 22.5032 48.4523 22.5032C46.2909 22.5032 45.1133 23.7081 45.1133 25.8959V29.8075C45.1133 31.9954 46.2909 33.2004 48.4523 33.2004ZM47.2265 25.8957C47.2265 24.9331 47.6211 24.4652 48.4523 24.4652C49.2835 24.4652 49.6919 24.9466 49.6919 25.8957V29.8073C49.6919 30.7566 49.2811 31.238 48.4523 31.238C47.6236 31.238 47.2265 30.7703 47.2265 29.8075V25.8957Z" fill="#2F80ED"/>
<path d="M55.5891 25.6288C55.7607 25.6284 55.9265 25.5647 56.0566 25.4493L56.2075 25.3112V32.3595C56.2075 32.8049 56.6411 33.1161 57.2641 33.1161C57.79 33.1161 58.3208 32.8562 58.3208 32.3595V23.2457C58.3208 22.7694 57.8046 22.4746 57.3415 22.4746C57.1657 22.4731 56.9951 22.5361 56.86 22.6522L55.2682 23.9045C55.1378 23.9931 55.0308 24.1138 54.9568 24.2558C54.8827 24.3977 54.844 24.5565 54.844 24.7177C54.844 25.156 55.1282 25.6288 55.5891 25.6288Z" fill="#2F80ED"/>
<path d="M22.3962 6.54961C22.3962 6.2601 22.2848 5.98245 22.0867 5.77773C21.8885 5.57302 21.6198 5.45801 21.3396 5.45801C21.0593 5.45801 20.7906 5.57302 20.5924 5.77773C20.3943 5.98245 20.283 6.2601 20.283 6.54961V6.91348C20.283 7.20299 20.3943 7.48065 20.5924 7.68536C20.7906 7.89008 21.0593 8.00509 21.3396 8.00509C21.6198 8.00509 21.8885 7.89008 22.0867 7.68536C22.2848 7.48065 22.3962 7.20299 22.3962 6.91348V6.54961Z" fill="#2F80ED"/>
<path d="M21.3396 9.46045C21.0593 9.46045 20.7906 9.57546 20.5924 9.78017C20.3943 9.98489 20.283 10.2625 20.283 10.5521V27.29C20.283 27.5795 20.3943 27.8572 20.5924 28.0619C20.7906 28.2666 21.0593 28.3816 21.3396 28.3816C21.6198 28.3816 21.8885 28.2666 22.0867 28.0619C22.2848 27.8572 22.3962 27.5795 22.3962 27.29V10.5521C22.3962 10.2625 22.2848 9.98489 22.0867 9.78017C21.8885 9.57546 21.6198 9.46045 21.3396 9.46045Z" fill="#2F80ED"/>
<path d="M65.4215 0H20.5785C19.099 0 17.6801 0.607204 16.6339 1.68804C15.5877 2.76887 15 4.23479 15 5.76331V33.0815C15.0044 34.6322 15.6027 36.1182 16.6641 37.2148C17.7255 38.3113 19.1638 38.9294 20.6648 38.9339H30.9258C35.1346 38.9339 35.7911 42.2839 36.1032 45.7301C36.1313 46.2301 36.1992 46.7269 36.3062 47.2154C36.3536 47.4444 36.4674 47.653 36.6324 47.8135C36.7974 47.974 37.0058 48.0788 37.2299 48.114C37.4589 48.1456 37.6917 48.1021 37.8955 47.9897C38.7658 47.6449 42.7709 45.7476 43.8645 39.4434C43.8918 39.2969 43.9686 39.1652 44.0812 39.0719C44.1939 38.9786 44.3349 38.9297 44.4792 38.9339H54.0943C54.3746 38.9339 54.6433 38.8189 54.8415 38.6142C55.0396 38.4095 55.1509 38.1318 55.1509 37.8423C55.1509 37.5528 55.0396 37.2752 54.8415 37.0704C54.6433 36.8657 54.3746 36.7507 54.0943 36.7507H44.4792C43.8391 36.7461 43.218 36.975 42.7251 37.397C42.2322 37.819 41.8993 38.4071 41.7849 39.0578C41.1455 42.7442 39.3688 44.567 38.1947 45.3891C37.9482 42.6841 37.2966 36.7507 30.9267 36.7507H20.6269C19.695 36.7507 18.8013 36.3683 18.1424 35.6875C17.4834 35.0067 17.1132 34.0834 17.1132 33.1206V5.76331C17.1132 4.81381 17.4783 3.9032 18.1282 3.2318C18.778 2.5604 19.6595 2.18321 20.5785 2.18321H65.3731C66.305 2.18321 67.1987 2.56567 67.8576 3.24645C68.5166 3.92724 68.8868 4.85057 68.8868 5.81335V33.1206C68.8868 34.0834 68.5166 35.0067 67.8576 35.6875C67.1987 36.3683 66.305 36.7507 65.3731 36.7507H61.4906C61.2103 36.7507 60.9416 36.8657 60.7434 37.0704C60.5453 37.2752 60.434 37.5528 60.434 37.8423C60.434 38.1318 60.5453 38.4095 60.7434 38.6142C60.9416 38.8189 61.2103 38.9339 61.4906 38.9339H65.3731C66.8654 38.9339 68.2966 38.3215 69.3519 37.2312C70.4072 36.141 71 34.6624 71 33.1206V5.76331C71 4.23479 70.4123 2.76887 69.3661 1.68804C68.3199 0.607204 66.901 0 65.4215 0Z" fill="#2F80ED"/>
</svg>
