<svg width="86" height="73" viewBox="0 0 86 73" fill="none" xmlns="http://www.w3.org/2000/svg">
<path d="M42.6047 49.3628C42.0276 49.3628 41.4634 49.5254 40.9835 49.8301C40.5036 50.1348 40.1296 50.5678 39.9088 51.0745C39.6879 51.5811 39.6301 52.1387 39.7427 52.6765C39.8553 53.2144 40.1333 53.7084 40.5414 54.0962C40.9495 54.484 41.4695 54.748 42.0355 54.855C42.6016 54.962 43.1883 54.907 43.7215 54.6972C44.2547 54.4873 44.7105 54.1319 45.0311 53.6759C45.3517 53.2199 45.5228 52.6838 45.5228 52.1354C45.5219 51.4003 45.2142 50.6955 44.6671 50.1757C44.12 49.6559 43.3783 49.3636 42.6047 49.3628ZM42.6047 52.9006C42.4454 52.9006 42.2897 52.8557 42.1573 52.7716C42.0249 52.6875 41.9217 52.568 41.8607 52.4282C41.7997 52.2884 41.7838 52.1345 41.8149 51.9861C41.8459 51.8376 41.9226 51.7013 42.0353 51.5943C42.1479 51.4873 42.2914 51.4144 42.4476 51.3849C42.6038 51.3553 42.7657 51.3705 42.9129 51.4284C43.06 51.4863 43.1858 51.5844 43.2743 51.7102C43.3628 51.8361 43.41 51.984 43.41 52.1354C43.4098 52.3382 43.3249 52.5327 43.1739 52.6762C43.0229 52.8197 42.8182 52.9003 42.6047 52.9006Z" fill="#2F80ED"/>
<path d="M18.6831 5.83095C18.5981 5.65767 18.4629 5.51104 18.2933 5.4083C18.1236 5.30556 17.9266 5.25098 17.7255 5.25098C17.5243 5.25098 17.3273 5.30556 17.1577 5.4083C16.988 5.51104 16.8528 5.65767 16.7679 5.83095L11.2511 17.0827C11.1859 17.2159 11.1522 17.361 11.1523 17.5079L11.1902 45.9454L13.303 45.9768L13.267 18.5788H16.6562V46.0151H18.769V18.5788H22.1846L22.148 45.9768L24.2607 45.9624L24.2974 17.5165C24.2976 17.3682 24.2639 17.2217 24.1986 17.087L18.6831 5.83095ZM21.5841 16.5713H13.8667L15.6273 12.8908H19.8241L21.5841 16.5713ZM17.7255 8.61038L18.8394 10.8832H16.6112L17.7255 8.61038Z" fill="#96D2EF"/>
<path d="M49.112 6.25936C48.9531 6.15955 48.7687 6.10245 48.5783 6.09409C48.388 6.08573 48.1989 6.12644 48.0309 6.21189C47.863 6.29734 47.7225 6.42437 47.6243 6.57951C47.5261 6.73465 47.4739 6.91213 47.4732 7.09316L47.4486 13.6983L43.1584 15.67L38.8625 13.6959L38.7685 7.13147C38.7659 6.95049 38.7119 6.77353 38.6121 6.61934C38.5124 6.46514 38.3706 6.33945 38.2018 6.25556C38.033 6.17167 37.8435 6.13271 37.6533 6.14281C37.4631 6.1529 37.2793 6.21167 37.1214 6.3129C35.6486 7.2567 34.4436 8.5312 33.6132 10.0234C32.7828 11.5156 32.3527 13.1795 32.361 14.8674C32.3692 16.5554 32.8156 18.2153 33.6606 19.7001C34.5056 21.1849 35.7231 22.4487 37.2051 23.3794C37.2255 23.3923 37.2463 23.404 37.2669 23.4166C37.4204 24.6139 37.6285 26.4112 37.8303 28.54C37.8541 28.7894 37.9751 29.0213 38.1696 29.1902C38.3641 29.3591 38.618 29.4529 38.8815 29.4531C39.0282 29.4529 39.1733 29.4238 39.3075 29.3675C39.4417 29.3112 39.5621 29.229 39.6611 29.1261C39.7601 29.0232 39.8354 28.9019 39.8824 28.7698C39.9293 28.6377 39.9469 28.4978 39.9338 28.359C39.793 26.8612 39.6504 25.5484 39.524 24.4806C40.6847 24.8749 41.9082 25.0764 43.1408 25.0763C44.3896 25.0748 45.6288 24.8691 46.8042 24.4682C46.0893 30.4061 45.7208 36.3769 45.7004 42.3535C45.7057 43.6495 45.7267 44.8343 45.7642 45.9756L47.8759 45.9128C47.8389 44.79 47.8185 43.6233 47.8132 42.3525C47.8345 36.0179 48.2519 29.6901 49.0632 23.4025C50.5625 22.4738 51.7951 21.2051 52.6498 19.7109C53.5045 18.2167 53.9545 16.5438 53.9592 14.8432C53.964 13.1425 53.5233 11.4675 52.6769 9.96899C51.8305 8.47049 50.6051 7.19566 49.1109 6.25936H49.112ZM50.4039 19.3696C49.7456 20.3161 48.889 21.1234 47.8875 21.7412C46.8861 22.359 45.7613 22.774 44.5835 22.9602C43.4057 23.1464 42.2002 23.0999 41.0422 22.8236C39.8841 22.5472 38.7985 22.0469 37.8531 21.354C36.9077 20.661 36.1228 19.7903 35.5474 18.7962C34.972 17.8021 34.6185 16.7059 34.509 15.5762C34.3995 14.4464 34.5363 13.3074 34.9109 12.2301C35.2854 11.1529 35.8897 10.1605 36.686 9.31516L36.758 14.3432C36.7607 14.5295 36.8179 14.7115 36.9232 14.8687C37.0285 15.0258 37.1778 15.1521 37.3544 15.2332L42.6986 17.6893C42.8419 17.7551 42.9992 17.7894 43.1584 17.7894C43.3177 17.7894 43.4749 17.7551 43.6183 17.6893L48.9625 15.233C49.1407 15.1512 49.291 15.0234 49.3964 14.8642C49.5019 14.7051 49.5581 14.521 49.5588 14.333L49.5779 9.25962C50.8775 10.6184 51.6641 12.3495 51.8137 14.1801C51.9633 16.0107 51.4673 17.8365 50.4039 19.3696Z" fill="#96D2EF"/>
<path d="M69.029 5.11161C68.9317 5.01723 68.8157 4.94204 68.6877 4.89034C68.5598 4.83865 68.4224 4.81146 68.2833 4.81034C68.1443 4.80922 68.0064 4.83419 67.8775 4.88382C67.7487 4.93346 67.6314 5.00677 67.5324 5.09956L64.5101 7.93269C62.9291 9.40665 61.8761 11.3158 61.5003 13.3899C61.1244 15.464 61.4447 17.5979 62.4159 19.4894L64.018 22.6471V27.2338C64.023 27.4063 64.0737 27.5749 64.1656 27.7238C64.2574 27.8727 64.3873 27.9972 64.5432 28.0857L63.6011 32.1692C62.7821 35.6799 62.4788 39.2815 62.6997 42.8713L62.8933 46.0019L65.0042 45.886L64.8142 42.7554C64.7026 40.9134 64.7364 39.066 64.9151 37.2288C67.1309 37.6707 69.4191 37.6707 71.6349 37.2288C71.8134 39.066 71.8471 40.9134 71.7354 42.7554L71.5447 45.886L73.6538 46.0019L73.8446 42.8713C74.0633 39.2812 73.7578 35.6796 72.9367 32.1692L71.9752 28.0857C72.127 27.9954 72.2521 27.8698 72.3383 27.7207C72.4246 27.5716 72.4693 27.404 72.4682 27.2338V22.767L74.1262 19.4825C75.0557 17.6248 75.3639 15.5411 75.0093 13.5119C74.6547 11.4827 73.6543 9.60551 72.1428 8.13295L69.029 5.11161ZM70.3554 26.2744H66.1299V23.4304H70.3554V26.2744ZM65.1668 35.2255C65.3033 34.3473 65.4723 33.4953 65.6753 32.6269L66.6968 28.2819H69.8522L70.8734 32.6269C71.0766 33.4953 71.2456 34.3584 71.3819 35.2367C69.3345 35.6667 67.2125 35.6629 65.1668 35.2255ZM72.227 18.5927L70.7903 21.4228H65.8158L64.3386 18.5815C63.5585 17.0726 63.2985 15.3686 63.5956 13.7113C63.8927 12.0541 64.7318 10.5279 65.9936 9.34951L68.262 7.22989L70.6371 9.52316C71.8464 10.699 72.6471 12.199 72.9312 13.8207C73.2154 15.4425 72.9692 17.108 72.2261 18.5927H72.227Z" fill="#96D2EF"/>
<path d="M39.3825 34.4717C39.2398 34.4715 39.0985 34.4989 38.9673 34.5521C38.836 34.6054 38.7174 34.6834 38.6188 34.7814C38.5202 34.8794 38.4435 34.9955 38.3934 35.1225C38.3433 35.2495 38.3209 35.3848 38.3274 35.5203C38.4353 37.7276 38.5035 40.0697 38.5035 42.5165C38.5035 43.628 38.4843 44.7702 38.4466 45.9101L40.5583 45.9737C40.5967 44.8127 40.6162 43.6483 40.6162 42.5164C40.6162 40.0386 40.5458 37.6637 40.4377 35.4291C40.4251 35.1712 40.3085 34.9278 40.112 34.7495C39.9155 34.5712 39.6543 34.4717 39.3825 34.4717Z" fill="#96D2EF"/>
<path d="M6.30549 46.5323V4.19889C6.30754 3.76696 6.40538 3.33965 6.59339 2.94156C6.78139 2.54347 7.05585 2.18245 7.40096 1.87929C7.74607 1.57612 8.15502 1.33679 8.60428 1.17506C9.05354 1.01334 9.53425 0.932415 10.0187 0.936948H4.76414C4.27966 0.932415 3.79896 1.01334 3.3497 1.17506C2.90044 1.33679 2.49148 1.57612 2.14637 1.87929C1.80126 2.18245 1.52681 2.54347 1.3388 2.94156C1.1508 3.33965 1.05296 3.76696 1.0509 4.19889V54.7208C1.0509 56.5446 2.72011 58.0873 4.76414 58.0873H10.0187C7.97469 58.0873 6.30549 56.5446 6.30549 54.7208V46.5323Z" fill="#96D2EF"/>
<path d="M81.2451 0.000115955H4.76503C4.14269 -0.00399849 3.52555 0.10142 2.94899 0.310329C2.37243 0.519238 1.84779 0.827531 1.40512 1.21754C0.962459 1.60754 0.610481 2.0716 0.369363 2.5831C0.128244 3.0946 0.00272538 3.6435 0 4.19833V54.7214C0 57.0588 2.14317 59.0243 4.76503 59.0243H31.1772V62.9893C31.179 63.2989 31.1123 63.6058 30.9808 63.8923C30.8494 64.1788 30.6558 64.4394 30.4112 64.6592C30.1666 64.8789 29.8757 65.0534 29.5553 65.1727C29.2349 65.2921 28.8912 65.3538 28.5439 65.3545C27.6783 65.3532 26.8208 65.504 26.0205 65.7983C25.2203 66.0927 24.4929 66.5248 23.8802 67.07C23.2675 67.6152 22.7813 68.2627 22.4495 68.9756C22.1177 69.6884 21.9468 70.4525 21.9466 71.2243C21.9482 71.3467 21.977 71.4677 22.0313 71.5801C22.0856 71.6926 22.1643 71.7944 22.2629 71.8796C22.3616 71.9648 22.4781 72.0317 22.6059 72.0765C22.7337 72.1214 22.8702 72.1432 23.0075 72.1407H61.9002C62.037 72.143 62.1729 72.121 62.3001 72.076C62.4272 72.031 62.5431 71.964 62.6409 71.8787C62.7387 71.7934 62.8165 71.6916 62.8697 71.5793C62.923 71.4669 62.9507 71.3463 62.9511 71.2243C62.9545 70.4535 62.7871 69.6897 62.4587 68.9766C62.1302 68.2636 61.6471 67.6154 61.0371 67.0691C60.427 66.5228 59.702 66.0893 58.9037 65.7933C58.1053 65.4974 57.2493 65.3448 56.3846 65.3444C56.0391 65.3445 55.6969 65.2834 55.378 65.1648C55.059 65.0462 54.7697 64.8723 54.5266 64.6533C54.2836 64.4342 54.0918 64.1743 53.9622 63.8887C53.8327 63.6031 53.768 63.2974 53.7719 62.9893V59.0243H81.2451C83.8668 59.0243 86 57.0588 86 54.7214V4.19833C85.9984 3.64398 85.874 3.09537 85.6339 2.584C85.3938 2.07263 85.0428 1.60859 84.601 1.2185C84.1592 0.828409 83.6353 0.519967 83.0594 0.310881C82.4835 0.101796 81.8669 -0.00381381 81.2451 0.000115955ZM4.76503 1.8739H81.2451C81.591 1.86969 81.9344 1.92664 82.2554 2.04145C82.5764 2.15627 82.8687 2.32667 83.1154 2.54282C83.3621 2.75897 83.5583 3.01656 83.6927 3.30072C83.827 3.58488 83.8969 3.88996 83.8982 4.19833V45.5955H2.10183V4.19833C2.10427 3.88949 2.17523 3.58413 2.31062 3.29985C2.44601 3.01556 2.64316 2.75797 2.89071 2.54191C3.13826 2.32585 3.43132 2.15559 3.753 2.04094C4.07468 1.9263 4.41863 1.86952 4.76503 1.8739ZM52.4572 65.4264H42.4539C42.1752 65.4264 41.9078 65.5251 41.7108 65.7008C41.5137 65.8765 41.403 66.1148 41.403 66.3633C41.403 66.6117 41.5137 66.85 41.7108 67.0257C41.9078 67.2014 42.1752 67.3001 42.4539 67.3001H57.1828C58.0345 67.4307 58.8243 67.7816 59.4541 68.309C60.084 68.8365 60.5261 69.5173 60.7255 70.267H24.1821C24.4253 69.3979 24.9858 68.6257 25.7754 68.0719C26.565 67.518 27.5388 67.2141 28.5434 67.2079C29.1654 67.2092 29.7816 67.1011 30.3566 66.8896C30.9316 66.6781 31.4541 66.3675 31.8941 65.9756C32.3341 65.5836 32.683 65.118 32.9206 64.6056C33.1583 64.0931 33.2801 63.5439 33.279 62.9893V59.0243H51.6701V62.9893C51.6415 63.8549 51.9167 64.7069 52.4572 65.4264ZM81.2451 57.1505H4.76503C3.30216 57.1505 2.10271 56.0262 2.10271 54.7214V47.4693H83.8982V54.7214C83.8982 56.0262 82.708 57.1505 81.2451 57.1505Z" fill="#2F80ED"/>
<path d="M5.60487 7.65141C5.88359 7.65141 6.1509 7.5527 6.34798 7.377C6.54507 7.2013 6.65579 6.963 6.65579 6.71452V6.40222C6.65579 6.15374 6.54507 5.91544 6.34798 5.73974C6.1509 5.56404 5.88359 5.46533 5.60487 5.46533C5.32615 5.46533 5.05885 5.56404 4.86176 5.73974C4.66468 5.91544 4.55396 6.15374 4.55396 6.40222V6.71452C4.55396 6.963 4.66468 7.2013 4.86176 7.377C5.05885 7.5527 5.32615 7.65141 5.60487 7.65141Z" fill="#2F80ED"/>
<path d="M5.60487 25.1401C5.88359 25.1401 6.1509 25.0414 6.34798 24.8657C6.54507 24.69 6.65579 24.4517 6.65579 24.2032V9.83753C6.65579 9.58905 6.54507 9.35075 6.34798 9.17504C6.1509 8.99934 5.88359 8.90063 5.60487 8.90063C5.32615 8.90063 5.05885 8.99934 4.86176 9.17504C4.66468 9.35075 4.55396 9.58905 4.55396 9.83753V24.2032C4.55396 24.4517 4.66468 24.69 4.86176 24.8657C5.05885 25.0414 5.32615 25.1401 5.60487 25.1401Z" fill="#2F80ED"/>
</svg>
