<svg width="30" height="30" viewBox="0 0 30 30" fill="none" xmlns="http://www.w3.org/2000/svg">
<path d="M0 15C0 6.71573 6.71573 0 15 0C23.2843 0 30 6.71573 30 15C30 23.2843 23.2843 30 15 30C6.71573 30 0 23.2843 0 15Z" fill="#27AE60"/>
<path d="M21.9928 9.62677C22.008 9.53428 21.9991 9.43938 21.9668 9.35146C21.9345 9.26353 21.8801 9.18564 21.8089 9.12547C21.7377 9.06531 21.6521 9.02497 21.5607 9.00844C21.4693 8.9919 21.3752 8.99976 21.2877 9.03122L6.3542 14.416C6.25577 14.4514 6.16981 14.5153 6.10702 14.5996C6.04422 14.684 6.00735 14.7851 6.00099 14.8904C5.99463 14.9957 6.01905 15.1006 6.07123 15.192C6.1234 15.2834 6.20103 15.3574 6.29447 15.4046L10.5612 17.5585C10.6453 17.601 10.739 17.6203 10.8328 17.6145C10.9267 17.6086 11.0173 17.5778 11.0956 17.5252L14.637 15.1408L12.5175 17.8181C12.4713 17.8764 12.4377 17.9437 12.4187 18.0158C12.3997 18.0878 12.3958 18.1631 12.4071 18.2368C12.4184 18.3106 12.4448 18.3811 12.4845 18.444C12.5243 18.5068 12.5766 18.5607 12.638 18.6021L19.0381 22.9099C19.1122 22.9597 19.1975 22.9899 19.2861 22.9979C19.3747 23.0058 19.464 22.9913 19.5456 22.9555C19.6273 22.9198 19.6987 22.864 19.7536 22.7932C19.8084 22.7224 19.8448 22.6389 19.8594 22.5502L21.9928 9.62677Z" fill="white"/>
</svg>
